# xmcd
#
# Track frame offsets:
#	150
#	18902
#	43529
#	62849
#	84034
#	105934
#	121438
#	153693
#	173547
#	195776
#
# Disc length: 3110 seconds
#
# Revision: 1
# Processed by: cddbd v1.5.2PL0 Copyright (c) Steve Scherf et al.
# Submitted via: CDmax 2.0
#
DISCID=680c240a
DTITLE=ULTRA FACE - ENTRE O CRIME E A NECESSIDADE
DYEAR=2007
DGENRE=Rap
TTITLE0=ENTRE O CRIME E A NECESSIDADE
TTITLE1=ALÉM DO SUBMUNDO
TTITLE2=LÁGRIMAS
TTITLE3=AINDA HÁ ESPERANÇA
TTITLE4=SEM MISÉRIA
TTITLE5=TEMPO DE SE ARREPENDER
TTITLE6=A REVOLTA
TTITLE7=NÃO VOU DESISTIR
TTITLE8=SEM LIMITE
TTITLE9=UMA LINDA HISTÓRIA DE AMOR
EXTD=
EXTT0=
EXTT1=
EXTT2=
EXTT3=
EXTT4=
EXTT5=
EXTT6=
EXTT7=
EXTT8=
EXTT9=
PLAYORDER=
